# xmcd
#
# Track frame offsets:
#	150
#	14475
#	25560
#	39525
#	52697
#	67110
#	81147
#	92672
#	105587
#	120362
#	132657
#	148425
#
# Disc length: 2125 seconds
#
# Revision: 1
# Processed by: cddbd v1.5.1PL0 Copyright (c) Steve Scherf et al.
# Submitted via: audiograbber 1.83.01
#
DISCID=9e084b0c
DTITLE=Γιώργος Ζαμπέτας - Ο άραψ και έτερα άσματα
DYEAR=1900
DGENRE=
TTITLE0=Ο αράπης
TTITLE1=Ζούλα σε μιά βάρκα
TTITLE2=Πατέρα κάτσε φρόνημα
TTITLE3=ηθελα να'μουνα Ηρακλής
TTITLE4=Να μ'αξιώσει ο Θεός
TTITLE5=δεν μου καίγεται καρφάκι
TTITLE6=Ο μαθητής
TTITLE7=Το ραδίκι
TTITLE8=Σου έδωσα διαζύγιο
TTITLE9=Ο αγαθοκλής
TTITLE10=Ετσι και αλλιώς και αλλιώτικα
TTITLE11=Ο κυρ-Αλέκος
EXTD=
EXTT0=
EXTT1=
EXTT2=
EXTT3=
EXTT4=
EXTT5=
EXTT6=
EXTT7=
EXTT8=
EXTT9=
EXTT10=
EXTT11=
PLAYORDER=
